<?xml version="1.0" encoding="iso-8859-1"?>
<!-- Generator: Adobe Illustrator 18.0.0, SVG Export Plug-In . SVG Version: 6.00 Build 0)  -->
<!DOCTYPE svg PUBLIC "-//W3C//DTD SVG 1.1//EN" "http://www.w3.org/Graphics/SVG/1.1/DTD/svg11.dtd">
<svg version="1.1" id="Capa_1" xmlns="http://www.w3.org/2000/svg" xmlns:xlink="http://www.w3.org/1999/xlink" x="0px" y="0px"
	 viewBox="0 0 256.131 256.131" style="enable-background:new 0 0 256.131 256.131;" xml:space="preserve">
<g>
	<path d="M197.156,86.702h-27.501c-3.548-19.584-20.712-34.488-41.303-34.488c-20.591,0-37.755,14.904-41.303,34.488H58.975
		c-4.142,0-7.5,3.358-7.5,7.5v154.429c0,4.142,3.358,7.5,7.5,7.5s7.5-3.358,7.5-7.5V101.702h27.389h68.974h26.817v146.929
		c0,4.142,3.358,7.5,7.5,7.5c4.142,0,7.5-3.358,7.5-7.5V94.202C204.656,90.06,201.298,86.702,197.156,86.702z M102.424,86.702
		c3.257-11.244,13.647-19.488,25.927-19.488c12.28,0,22.67,8.244,25.927,19.488H102.424z"/>
	<path d="M128.352,40.217c4.142,0,7.5-3.358,7.5-7.5V7.5c0-4.142-3.358-7.5-7.5-7.5c-4.142,0-7.5,3.358-7.5,7.5v25.217
		C120.851,36.859,124.209,40.217,128.352,40.217z"/>
	<path d="M86.013,53.365c1.464,1.464,3.384,2.197,5.303,2.197c1.919,0,3.839-0.732,5.303-2.197c2.929-2.929,2.929-7.678,0-10.606
		L78.786,24.925c-2.929-2.929-7.678-2.929-10.606,0c-2.929,2.929-2.929,7.678,0,10.606L86.013,53.365z"/>
	<path d="M165.387,55.56c1.919,0,3.839-0.732,5.303-2.197l17.834-17.833c2.929-2.929,2.929-7.677,0-10.606
		c-2.929-2.929-7.678-2.929-10.607,0l-17.834,17.833c-2.929,2.929-2.929,7.677,0,10.606C161.548,54.829,163.468,55.56,165.387,55.56
		z"/>
</g>
<g>
</g>
<g>
</g>
<g>
</g>
<g>
</g>
<g>
</g>
<g>
</g>
<g>
</g>
<g>
</g>
<g>
</g>
<g>
</g>
<g>
</g>
<g>
</g>
<g>
</g>
<g>
</g>
<g>
</g>
</svg>
