<svg class="svg-icon" style="width: 1em; height: 1em;vertical-align: middle;fill: currentColor;overflow: hidden;" viewBox="0 0 1024 1024" version="1.1" xmlns="http://www.w3.org/2000/svg"><path d="M737.28 225.28H286.72c-33.792 0-61.44 27.648-61.44 61.44v450.56c0 33.792 27.648 61.44 61.44 61.44h450.56c33.792 0 61.44-27.648 61.44-61.44V286.72c0-33.792-27.648-61.44-61.44-61.44zM389.12 675.84c0 11.264-9.216 20.48-20.48 20.48h-20.48c-11.264 0-20.48-9.216-20.48-20.48V563.2c0-11.264 9.216-20.48 20.48-20.48h20.48c11.264 0 20.48 9.216 20.48 20.48v112.64z m102.4 0c0 11.264-9.216 20.48-20.48 20.48h-20.48c-11.264 0-20.48-9.216-20.48-20.48V409.6c0-11.264 9.216-20.48 20.48-20.48h20.48c11.264 0 20.48 9.216 20.48 20.48v266.24z m102.4 0c0 11.264-9.216 20.48-20.48 20.48h-20.48c-11.264 0-20.48-9.216-20.48-20.48V348.16c0-11.264 9.216-20.48 20.48-20.48h20.48c11.264 0 20.48 9.216 20.48 20.48v327.68z m102.4 0c0 11.264-9.216 20.48-20.48 20.48h-20.48c-11.264 0-20.48-9.216-20.48-20.48V481.28c0-11.264 9.216-20.48 20.48-20.48h20.48c11.264 0 20.48 9.216 20.48 20.48v194.56z"  /></svg>